<?xml version="1.0" encoding="utf-8"?>
<!-- Generator: Adobe Illustrator 19.2.1, SVG Export Plug-In . SVG Version: 6.00 Build 0)  -->
<svg version="1.1" id="Layer_1" xmlns="http://www.w3.org/2000/svg" xmlns:xlink="http://www.w3.org/1999/xlink" x="0px" y="0px"
	 viewBox="0 0 632.1 632.1" style="enable-background:new 0 0 632.1 632.1;" xml:space="preserve">
<style type="text/css">
	.st0{fill:none;stroke:#E52529;stroke-width:0.1027;stroke-miterlimit:10;}
</style>
<polygon class="st0" points="234.7,206.4 234.5,209.6 234,212.7 233.3,215.7 232.2,218.5 230.9,221.3 229.4,223.8 227.6,226.2 
	225.5,228.4 223.3,230.5 220.9,232.3 218.4,233.8 215.6,235.1 212.8,236.2 209.8,236.9 206.7,237.4 203.5,237.6 200.3,237.4 
	197.2,236.9 194.2,236.2 191.4,235.1 188.6,233.8 186.1,232.3 183.7,230.5 181.5,228.4 179.4,226.2 177.6,223.8 176.1,221.3 
	174.8,218.5 173.7,215.7 172.9,212.7 172.5,209.6 172.3,206.4 172.5,203.2 172.9,200.1 173.7,197.1 174.8,194.3 176.1,191.5 
	177.6,189 179.4,186.6 181.5,184.4 183.7,182.3 186.1,180.5 188.6,179 191.4,177.7 194.2,176.6 197.2,175.8 200.3,175.4 
	203.5,175.2 206.7,175.4 209.8,175.8 212.8,176.6 215.6,177.7 218.4,179 220.9,180.5 223.3,182.3 225.5,184.4 227.6,186.6 
	229.4,189 230.9,191.5 232.2,194.3 233.3,197.1 234,200.1 234.5,203.2 "/>
</svg>
