<?xml version="1.0" encoding="utf-8"?>
<!-- Generator: Adobe Illustrator 21.1.0, SVG Export Plug-In . SVG Version: 6.00 Build 0)  -->
<svg version="1.1" id="Layer_1" xmlns="http://www.w3.org/2000/svg" xmlns:xlink="http://www.w3.org/1999/xlink" x="0px" y="0px"
	 viewBox="0 0 566.9 566.9" style="enable-background:new 0 0 566.9 566.9;" xml:space="preserve">
<style type="text/css">
	.st0{fill:none;stroke:#010101;stroke-miterlimit:10;}
</style>
<path class="st0" d="M293.6,456.1c-3.9,0.5-8.2,0.5-12.8,0.1s-9.4-1.2-14.3-2.3c-4.9-1.2-10-2.8-15-4.8s-10-4.3-14.8-7.1
	s-9.5-5.9-13.8-9.4c-4.3-3.5-8.4-7.4-12-11.6c-3.6-4.2-6.7-8.8-9.3-13.8c-2.6-4.9-4.5-10.2-5.8-15.8c-1-4.7-1.9-9.9-2.7-15.5
	c-0.8-5.7-1.4-11.9-2-18.5c-0.6-6.6-1.1-13.6-1.6-21s-0.9-15.2-1.3-23.3c-0.4-8.1-0.9-16.5-1.3-25.2c-0.5-8.7-1-17.6-1.5-26.8
	c-0.6-9.1-1.2-18.5-1.9-28c-0.7-9.5-1.6-19.2-2.6-28.9l7.4-0.6l7.4-0.6l7.4-0.6l7.4-0.6l7.4-0.6l7.4-0.6l7.4-0.6l7.4-0.6l9.3-10.8
	l9.3-10.8l9.3-10.8l9.3-10.8l9.3-10.8l9.3-10.8l9.3-10.8l9.3-10.8l8.8-0.1l8.8-0.1l8.8-0.1l8.8-0.1l8.8-0.1l8.8-0.1l8.8-0.1l8.8-0.1
	c0,1.4,0,2.9,0,4.3c0,1.5,0,2.9,0,4.4s0,2.9,0,4.4c0,1.5,0,3,0,4.4c0,1.5,0,3-0.1,4.5c0,1.5,0,3-0.1,4.5c0,1.5-0.1,3-0.1,4.5
	c0,1.5-0.1,3-0.1,4.6c-0.3,12.3-0.5,23.7-0.7,34.3c-0.1,10.6-0.2,20.6-0.2,30c0,9.4,0,18.3,0,26.8c0,8.6,0.1,16.8,0.1,25
	c0,8.1,0,16.2,0,24.3c0,8.1-0.1,16.3-0.3,24.8c-0.2,8.5-0.4,17.3-0.8,26.6c-0.4,9.3-0.8,19.1-1.4,29.6c-0.6,10.5-1.9,19.7-3.8,27.7
	c-1.9,8-4.4,14.9-7.4,20.8c-3,5.9-6.4,10.9-10.2,15c-3.8,4.1-7.9,7.5-12.2,10.2c-4.3,2.7-8.8,4.8-13.5,6.4
	c-4.6,1.6-9.3,2.8-13.9,3.7c-4.6,0.9-9.2,1.5-13.6,2C301.7,455.2,297.5,455.6,293.6,456.1z"/>
<polyline class="st0" points="333.7,193.8 240.2,286.5 329.8,396.2 "/>
</svg>
