<?xml version="1.0" encoding="utf-8"?>
<!-- Generator: Adobe Illustrator 21.1.0, SVG Export Plug-In . SVG Version: 6.00 Build 0)  -->
<svg version="1.1" id="Layer_1" xmlns="http://www.w3.org/2000/svg" xmlns:xlink="http://www.w3.org/1999/xlink" x="0px" y="0px"
	 viewBox="0 0 566.9 566.9" style="enable-background:new 0 0 566.9 566.9;" xml:space="preserve">
<style type="text/css">
	.st0{fill:none;stroke:#010101;stroke-miterlimit:10;}
</style>
<path class="st0" d="M444.9,489.4l-5.8,4.6l-5.8,4.6l-5.8,4.6l-5.8,4.6l-5.8,4.6l-5.8,4.6l-5.8,4.6l-5.8,4.6
	c-1.3-1.6-2.6-3.1-3.9-4.7c-1.3-1.6-2.6-3.1-3.9-4.7s-2.6-3.1-4-4.7s-2.7-3.1-4-4.7c-1.3-1.6-2.7-3.1-4.1-4.7
	c-1.4-1.6-2.7-3.1-4.1-4.7c-1.4-1.6-2.8-3.1-4.2-4.6c-1.4-1.5-2.8-3.1-4.2-4.6c-8.2-8.9-16.8-17.6-25.8-26c-9-8.5-18.4-16.7-28-24.9
	c-9.6-8.2-19.5-16.2-29.6-24.2c-10.1-8-20.3-16-30.6-24s-20.7-16.1-31-24.3c-10.3-8.2-20.6-16.6-30.8-25.1s-20.2-17.3-30.1-26.4
	c-9.8-9.1-19.5-18.4-28.7-28.2s-18.1-19.4-26.1-28.9c-8.1-9.5-15.4-19-22-28.3s-12.3-18.5-17-27.6c-4.7-9.1-8.5-18-11.2-26.9
	c-2.6-8.8-4.2-17.5-4.4-26.1c-0.3-8.6,0.7-17,3.1-25.3c2.4-8.3,6.2-16.4,11.6-24.5s12.3-15.9,20.9-23.6c8.6-7.7,17.2-13.9,25.6-18.8
	s16.8-8.4,25.1-10.8c8.3-2.4,16.5-3.7,24.5-4s16,0.3,23.9,1.8c7.8,1.4,15.5,3.6,23.1,6.5s15,6.2,22.3,10.1
	c7.3,3.8,14.4,8.1,21.3,12.6s13.7,9.2,20.3,14c14.7,10.6,27.6,20,38.9,28.4c11.4,8.4,21.2,15.7,29.8,22.2s15.9,12.2,22.3,17.1
	c6.3,5,11.6,9.3,16.2,13.1c4.5,3.8,8.3,7.2,11.6,10.2s6,5.7,8.5,8.3s4.7,5,6.9,7.5c2.2,2.5,4.4,5.1,6.8,7.8c2.1,2.4,4.6,5.3,7.4,8.6
	c2.8,3.3,6,7.1,9.5,11.3c3.5,4.2,7.3,8.8,11.3,13.8s8.3,10.4,12.9,16.1c4.5,5.8,9.3,11.9,14.2,18.4c4.9,6.5,10,13.4,15.3,20.6
	c5.2,7.2,10.6,14.7,16.1,22.6c5.5,7.9,11.1,16,16.7,24.5l-7.3,4.9l-7.3,4.9l-7.3,4.9l-7.3,4.9l-7.3,4.9l-7.3,4.9l-7.3,4.9l-7.3,4.9
	l-1.7,14.2l-1.7,14.2l-1.7,14.2l-1.7,14.2L450,447l-1.7,14.2l-1.7,14.2L444.9,489.4z"/>
<polyline class="st0" points="378.2,437.4 427,290.1 230.9,299.7 297.5,167.4 158.9,244.2 195.8,82.9 104.5,144 "/>
</svg>
