<?xml version="1.0" encoding="utf-8"?>
<!-- Generator: Adobe Illustrator 19.2.1, SVG Export Plug-In . SVG Version: 6.00 Build 0)  -->
<svg version="1.1" id="Layer_1" xmlns="http://www.w3.org/2000/svg" xmlns:xlink="http://www.w3.org/1999/xlink" x="0px" y="0px"
	 viewBox="0 0 402.5 850.4" style="enable-background:new 0 0 402.5 850.4;" xml:space="preserve">
<style type="text/css">
	.st0{fill:none;stroke:#000000;stroke-width:3;stroke-miterlimit:10;}
</style>
<polygon class="st0" points="24.6,507.6 24.7,499.3 24.6,490.9 24.7,481.3 24.7,472.3 24.7,459.8 25,451.9 26,444.2 27,436.7 
	28.8,424.5 30.8,412.4 32.7,401.3 34.9,390.4 37.6,377.2 40.3,364.4 42.8,353.3 45.2,342.4 47.8,330.8 50.5,319.7 53.1,308.4 
	55.5,297.8 57.7,288 59.5,278.9 61,270.8 62.6,262.7 64.1,254.7 65.6,246.6 68.1,234.2 70.6,221.6 72.5,212.3 74.6,202.8 77.3,190 
	79.6,177.7 81.5,167 83.1,156.5 85.1,145.9 86.9,135.5 88.7,127 90.6,118.5 92.7,110.4 95,102 98.5,91.7 103.1,80.6 109.4,67.9 
	117.3,55.6 123.2,47.8 130.1,40.7 137.6,34.2 146,28.5 158.6,22.7 170.4,19.6 178.3,18.8 185.3,18.6 196.2,19.6 203.7,20.4 
	213.4,22.1 225.7,24.7 236.8,28.3 246.3,33.2 255.5,39.8 264.6,47.5 272.3,55.7 279.2,65.2 283.9,74.3 287.6,84.7 290,96.2 
	291,109.3 290.9,117.2 290.1,126.2 289,136.2 287.6,146.5 286,156.2 284.4,165.7 282.9,173.3 281.5,180.6 278.9,192.7 276.9,201.4 
	274.9,210.7 272.4,223.6 269.9,235.8 267.1,247.2 264.4,258.6 261.9,268.8 259.5,279.3 257.2,289.1 255.3,299.4 254,306.2 
	252.7,313.4 250.8,326.3 249.1,340.3 248.2,353.2 248.3,366.5 248.8,378.7 249.8,391 251.4,403.2 253.1,415.7 254.7,425.8 
	256.4,436 258,445.9 259.6,455.8 261.3,465 262.7,474.2 263.9,482.4 265.1,493.2 266.5,504 267.2,510.2 268.4,522.4 269.5,534.6 
	270.4,543.6 271.2,552.8 271.4,560.9 271.5,569 270.6,581.9 268.9,594.4 268.1,600.8 266.4,610.9 264.7,619.9 263.1,627 
	260.1,639.4 256.7,651.8 252.2,665.1 246.6,678.1 241.8,687.6 236.5,696.7 230.9,704.8 225,712.5 215.4,722.8 204.7,730.9 
	196.7,735.6 186.7,740.5 178.5,743.4 169.1,745.1 159.2,745.6 149.5,745 135.1,741.6 121.4,735.7 110.4,728.7 100.6,720.1 
	91.2,709.8 83,699.1 75.8,688.5 69,677.3 64.1,668.1 59.3,658.2 54.7,648.2 50.6,638.4 46.9,628.6 43.6,618.4 39.6,605.3 
	36.4,592.3 34,582.1 31.8,571.6 30,561.6 28.4,551.5 26.9,540.1 25.6,528.9 24.9,518 "/>
</svg>
