<?xml version="1.0" encoding="utf-8"?>
<!-- Generator: Adobe Illustrator 19.2.1, SVG Export Plug-In . SVG Version: 6.00 Build 0)  -->
<svg version="1.1" id="Layer_1" xmlns="http://www.w3.org/2000/svg" xmlns:xlink="http://www.w3.org/1999/xlink" x="0px" y="0px"
	 viewBox="0 0 402.5 850.4" style="enable-background:new 0 0 402.5 850.4;" xml:space="preserve">
<style type="text/css">
	.st0{fill:#FFFFFF;stroke:#000000;stroke-width:0.9189;stroke-miterlimit:10;}
</style>
<path class="st0" d="M45,604.9c-1-1.6-1.9-3.4-2.8-5.4c-0.9-2-1.7-4.3-2.5-6.7c-0.8-2.4-1.5-4.9-2.2-7.5s-1.3-5.3-1.9-8
	c-0.6-2.7-1.1-5.5-1.6-8.1c-0.5-2.7-0.9-5.3-1.3-7.9c-0.4-2.5-0.7-4.9-1-7.2c-0.3-2.2-0.5-4.3-0.6-6.1c-0.2-2.8-0.5-6-0.7-9.4
	c-0.2-3.4-0.5-7.1-0.7-11s-0.4-7.9-0.6-12.1c-0.2-4.1-0.4-8.4-0.5-12.6c-0.1-4.2-0.2-8.4-0.3-12.6s-0.1-8.2-0.1-12
	c0-3.9,0.1-7.6,0.3-11c0.1-3.4,0.4-6.6,0.6-9.4c0.4-3.7,1-8.3,1.9-13.4s1.9-11,3.1-17.1c1.2-6.1,2.5-12.6,3.9-19.1
	c1.4-6.5,2.8-13.1,4.2-19.4s2.8-12.4,4.1-18s2.5-10.7,3.5-15c1-4.3,1.8-7.8,2.4-10.2c0.6-2.4,0.9-3.8,0.9-3.8l3.6-15.3l3.6-15.3
	l3.6-15.3l3.6-15.3l3.6-15.3l3.6-15.3l3.6-15.3l3.6-15.3l4.6-17.3l4.6-17.3l4.6-17.3l4.6-17.3l4.6-17.3l4.6-17.3l4.6-17.3l4.6-17.3
	c0,0,0.2-0.6,0.7-1.7c0.5-1.1,1.1-2.6,2.1-4.4s2.2-4,3.7-6.3c1.5-2.3,3.3-4.9,5.4-7.4s4.5-5.2,7.3-7.7s5.9-5,9.4-7.1
	c3.5-2.2,7.3-4.2,11.6-5.8c4.2-1.6,8.9-2.8,13.9-3.6s10.2-1,15.5-0.9c5.2,0.1,10.5,0.7,15.7,1.5c5.2,0.9,10.3,2,15.3,3.5
	s9.8,3.2,14.3,5.1c4.5,1.9,8.8,4,12.6,6.2s7.3,4.6,10.3,7s5.5,4.9,7.4,7.3c1.9,2.5,3.2,4.9,3.9,7.3s1.5,5.4,2.5,9s2.1,7.7,3.2,12.3
	s2.1,9.6,3,14.9s1.6,10.9,2.1,16.8s0.6,11.8,0.3,17.9s-1,12.2-2.3,18.3s-3.2,12.1-5.7,17.9s-5.9,11.5-10,16.9s-8.5,10.2-12.9,14.5
	s-9,8.1-13.6,11.6s-9.2,6.5-13.7,9.3s-9,5.4-13.2,7.8s-8.3,4.7-12.1,6.9s-7.3,4.4-10.4,6.7s-5.8,4.6-8,7.1s-3.9,5.2-5.1,8.2
	c-1,2.7-2.2,5.7-3.5,9c-1.3,3.3-2.6,6.9-4,10.7s-2.7,7.8-4.1,11.9c-1.3,4.1-2.5,8.3-3.6,12.6s-2,8.6-2.7,13
	c-0.7,4.3-1.2,8.7-1.4,12.9c-0.2,4.2,0,8.4,0.5,12.4c0.5,4,1.4,7.9,2.8,11.5s3.6,7.3,6.4,10.9s6.3,7.3,10.2,10.9s8.2,7.1,12.7,10.5
	s9.2,6.8,14,9.9s9.4,6.2,13.9,9.1s8.8,5.5,12.6,8s7.2,4.7,10,6.6s4.9,3.6,6.1,5s2.8,5.5,4.3,11.7s3.2,14.6,4.8,24.4
	c0.9,5.8,1.8,12.1,2.6,18.8c0.6,4.7,1.1,9.6,1.6,14.7c1.2,12.2,2,25.4,2.4,38.8c0.2,6.8,0.3,13.7,0.2,20.6
	c-0.1,6.6-0.2,13.2-0.6,19.8c-0.3,6.2-0.8,12.4-1.4,18.4c-0.7,6.9-1.6,13.6-2.8,20c-1.1,6-2.4,11.8-3.9,17.3S246,651,244,655.7
	c-4,9.5-8.9,17.4-15,23.2s-12.5,10.7-19,14.8s-13.3,7.2-20.2,9.4s-14,3.3-21.3,3.2s-14.8-1.2-22.5-3.6s-15.6-6.1-23.6-11.2
	c-4.6-2.9-9.2-6.2-13.9-10.1c-3.6-2.9-7.2-6-10.8-9.5c-3.6-3.4-7.2-7.1-10.8-11c-1.9-2-3.8-4.2-5.7-6.3c-3.1-3.5-6.2-7.3-9.3-11.2
	c-4.5-5.7-9-11.8-13.6-18.3c-2.4-3.4-4.7-6.9-7.1-10.5C49.1,611.4,47.1,608.2,45,604.9z"/>
</svg>
