<?xml version="1.0" encoding="utf-8"?>
<!-- Generator: Adobe Illustrator 19.2.1, SVG Export Plug-In . SVG Version: 6.00 Build 0)  -->
<svg version="1.1" id="Layer_1" xmlns="http://www.w3.org/2000/svg" xmlns:xlink="http://www.w3.org/1999/xlink" x="0px" y="0px"
	 viewBox="0 0 402.5 850.4" style="enable-background:new 0 0 402.5 850.4;" xml:space="preserve">
<style type="text/css">
	.st0{opacity:0.5;fill:#FFFFFF;stroke:#000000;stroke-width:1.0751;stroke-miterlimit:10;enable-background:new    ;}
</style>
<path class="st0" d="M251.1,680.4c-4.9,8.7-10.3,16-16.1,22.1s-11.9,11.1-18.2,15.1c-6.4,4-13,7.1-19.7,9.4
	c-6.7,2.3-13.6,3.9-20.5,5s-13.8,1.6-20.7,1.8c-6.8,0.2-13.6,0.1-20.2-0.1s-12.9-0.5-19-0.7c-6.1-0.2-11.8-0.3-17.2-0.1
	c-5.3,0.2-9.9-1.5-13.8-4.8s-7.1-8.1-9.7-14.2c-2.6-6.1-4.7-13.5-6.3-21.7c-1.6-8.3-2.8-17.5-3.6-27.3c-0.8-9.8-1.3-20.3-1.6-31
	s-0.4-21.8-0.3-32.8c0-11,0.2-22,0.3-32.6c0.1-10.6,0.3-20.9,0.3-30.5s1.2-18.4,3.4-26.6c2.2-8.2,5.3-15.8,9-22.9
	c3.8-7.1,8.2-13.7,13-20c4.8-6.3,10-12.2,15.3-17.9s10.7-11.2,15.8-16.7s10.2-10.9,14.7-16.3s8.6-11,11.9-16.8
	c3.3-5.8,5.9-11.8,7.4-18.1c1.5-6.4,1.5-13.8,0.1-22.2c-1.3-8.3-3.9-17.5-7.4-27.3s-8-20.3-13-31.1s-10.7-22-16.6-33.4
	c-5.9-11.4-12-22.9-18.1-34.3s-12.1-22.8-17.7-33.8s-10.8-21.7-15.2-31.9c-4.4-10.1-8.1-19.7-10.7-28.5c-2.6-8.8-4.1-16.7-4.5-23.8
	s0-13.4,1.3-19c1.3-5.6,3.3-10.5,6-14.8c2.7-4.3,5.9-8,9.6-11.2s7.7-5.8,12-8.1c4.3-2.2,8.8-4,13.3-5.5c4.5-1.5,9.1-2.6,13.5-3.5
	s8.7-1.5,12.6-2s8.3,0.7,12.9,3.4s9.5,6.7,14.6,11.8c5.1,5.1,10.2,11.3,15.4,18.1c5.2,6.9,10.4,14.5,15.4,22.4
	c5,8,9.9,16.3,14.5,24.6c4.6,8.4,8.9,16.7,12.7,24.8c3.8,8.1,7.2,15.8,10,22.9s5,13.5,6.5,19s3.4,12.8,5.7,21.7
	c2.3,8.9,4.9,19.4,7.8,31.1s6,24.5,9.4,38.2c3.3,13.7,6.9,28.2,10.5,43.1c3.6,15,7.4,30.4,11.1,45.9c3.8,15.5,7.6,31.1,11.3,46.5
	c3.7,15.3,7.4,30.4,11,44.8c3.5,14.4,7,28.2,10.2,41c1.5,5.9,2.4,11.8,2.9,17.9c0.5,6.1,0.5,12.3,0.1,18.6
	c-0.4,6.3-1.3,12.8-2.6,19.4s-3.1,13.4-5.2,20.3c-2.1,6.9-4.7,14-7.6,21.3c-2.9,7.3-6.2,14.8-9.8,22.5c-3.6,7.7-7.6,15.7-11.9,23.8
	S256,671.7,251.1,680.4z"/>
</svg>
