<?xml version="1.0" encoding="utf-8"?>
<!-- Generator: Adobe Illustrator 19.2.1, SVG Export Plug-In . SVG Version: 6.00 Build 0)  -->
<svg version="1.1" id="Layer_1" xmlns="http://www.w3.org/2000/svg" xmlns:xlink="http://www.w3.org/1999/xlink" x="0px" y="0px"
	 viewBox="0 0 402.5 850.4" style="enable-background:new 0 0 402.5 850.4;" xml:space="preserve">
<style type="text/css">
	.st0{fill:none;stroke:#000000;stroke-width:3;stroke-miterlimit:10;}
</style>
<polygon class="st0" points="501.2,326 507.6,334.3 513.9,343.2 520.1,352.7 526.1,362.5 531.2,371.3 536,380.2 540.9,389.8 
	545.6,399.2 551.2,411.3 556.5,424 560.3,434 563.7,443.9 566.6,454.1 569.4,464.8 571.9,475.5 573.9,485.7 575.6,498.7 
	576.8,511.4 577.1,524.9 576.4,538.8 574.1,551.7 570,564.1 563.2,577.3 554.1,589 547,595.6 538.9,601.5 530.6,606.1 522.4,609 
	511.6,611.5 502.3,612.9 489,613.3 475,611.4 465.5,609.2 456.1,606.4 446.3,602.7 436.6,598.4 424,591.8 412.1,584.3 401.7,576.8 
	391.5,569.1 385.8,564.6 378.8,558.7 371.2,551.9 366.5,547.5 357.2,538.8 348.5,529.4 343.4,523 338.4,516.6 333.3,509 
	328.3,501.4 321.5,491.3 314.7,481.1 311.4,475.8 305.5,466.5 299.8,457.4 295.5,450.3 290.8,442.3 286.2,434.1 281.3,425.4 
	276.3,416.6 271.2,407.7 265.9,398.8 259.5,388.1 252.9,377.6 246,367.4 238.8,357.6 230.4,347.2 221.6,337.8 211.5,328 
	201.8,319.2 196.3,314.4 190.9,309.9 183,303.2 175.1,297 166.6,290.4 158.1,284 148.9,276.9 139.6,269.8 129.9,261.9 119.9,253.5 
	112.4,247.5 105.4,242 95.8,234.3 90,229.5 84,224.5 76.8,218.2 69.5,211.7 61.8,204.6 54.7,197.5 48.5,191 43.3,184.9 35.8,174.2 
	30.5,163.7 26.8,153.3 24.7,143.3 24,131.5 24.9,120.3 27.1,108.6 30,97.7 34.3,87.9 40.7,78.1 48.5,68.3 55.1,60.9 60.4,55.6 
	68.2,47.9 73.8,43.6 80.4,39.3 91.5,34.2 105,30.8 115,29.9 125,30.2 134.7,31.4 144.3,33.7 158.2,38.3 171.1,44.2 181.7,49.9 
	190.8,55.7 197.9,60.7 204.7,65.7 211.5,71.1 218.2,76.6 226.3,83.5 234.5,90.5 242.4,97.6 250.5,104.7 260.1,112.8 270.3,121 
	277.8,127.1 285.3,133.1 295.1,141.3 304.9,149.4 311.2,154.7 317.4,159.9 323.6,165.2 330,170.6 337.2,176.5 345,182.7 
	353.6,189.4 362.6,196.5 371.8,203.5 381.2,210.8 389.9,217.7 398.8,224.8 409,233 419.4,241.6 427.9,248.7 436.5,256.1 
	445.6,264.2 454.7,272.5 460.3,277.7 465.8,283.1 471,289 479,298.7 484.7,305.7 490.7,313.1 496,319.6 501.2,326 "/>
</svg>
