<?xml version="1.0" encoding="utf-8"?>
<!-- Generator: Adobe Illustrator 19.2.1, SVG Export Plug-In . SVG Version: 6.00 Build 0)  -->
<svg version="1.1" id="Layer_1" xmlns="http://www.w3.org/2000/svg" xmlns:xlink="http://www.w3.org/1999/xlink" x="0px" y="0px"
	 viewBox="0 0 402.5 850.4" style="enable-background:new 0 0 402.5 850.4;" xml:space="preserve">
<style type="text/css">
	.st0{fill:none;stroke:#000000;stroke-width:3;stroke-miterlimit:10;}
</style>
<polygon class="st0" points="274.8,560.6 273,570.9 270.7,581.6 267.8,592.6 264.7,603.6 261.6,613.3 258.3,622.8 254.5,632.9 
	250.8,642.8 245.6,655.1 239.8,667.5 235,677.1 230,686.3 224.4,695.3 218.4,704.6 212.2,713.7 206.1,722 197.6,732.1 189.1,741.5 
	179.3,750.9 168.6,759.7 157.5,766.7 145.6,772.1 131.3,776 116.5,777.2 106.8,776.4 97,774.4 88,771.4 80.3,767.3 71.2,761 
	63.9,755.1 54.6,745.6 46.6,734 41.8,725.5 37.5,716.6 33.6,706.9 30.2,696.9 26.6,683.1 24.1,669.3 22.6,656.5 21.4,643.8 
	20.9,636.6 20.5,627.4 20.4,617.2 20.4,610.8 20.6,598 21.6,585.3 22.9,577.2 24.3,569.2 26.4,560.3 28.7,551.5 31.5,539.6 
	34.4,527.7 36.1,521.7 39,511.1 41.9,500.7 44.2,492.8 46.9,483.9 49.9,475 53,465.5 56.1,455.9 59.2,446.1 62.2,436.2 65.8,424.2 
	69.1,412.3 71.9,400.3 74.3,388.4 76.3,375.1 77.3,362.3 77.7,348.2 77.6,335.1 77.5,327.8 77.1,320.8 76.7,310.5 76,300.5 
	75.1,289.7 74.1,279.1 73.1,267.6 72.1,255.9 71.4,243.4 70.8,230.4 70.2,220.8 69.5,211.9 68.7,199.6 68.3,192.1 68,184.3 
	67.7,174.7 67.6,165 67.6,154.5 68.1,144.5 68.7,135.5 69.7,127.5 72.5,114.8 76.7,103.8 81.9,94 87.8,85.7 96,77.3 104.9,70.4 
	115,64.1 125,58.9 135.2,55.4 146.7,53.5 159.2,52.7 169.1,52.5 176.6,52.9 187.6,53.4 194.5,54.6 202.1,56.6 213.4,61.3 225,69 
	232.4,75.8 239,83.4 244.6,91.3 249.4,100 255.4,113.3 259.8,126.8 262.7,138.5 264.6,149.1 265.7,157.7 266.6,166.1 267.2,174.8 
	267.7,183.4 268,194.1 268.4,204.8 268.5,215.5 268.7,226.2 269.3,238.8 270.1,251.8 270.7,261.5 271.3,271.1 271.9,283.8 
	272.5,296.5 272.8,304.8 273.2,312.9 273.5,321 273.8,329.4 274.3,338.7 275,348.6 275.9,359.5 276.7,370.9 277.8,382.4 
	278.7,394.3 279.5,405.4 280.3,416.7 281.1,429.8 281.8,443.3 282.3,454.3 282.7,465.7 282.8,477.8 282.8,490.2 282.8,497.8 
	282.5,505.5 281.7,513.3 279.9,525.8 278.6,534.7 277.2,544.1 276,552.4 "/>
</svg>
