<?xml version="1.0" encoding="utf-8"?>
<!-- Generator: Adobe Illustrator 19.2.1, SVG Export Plug-In . SVG Version: 6.00 Build 0)  -->
<svg version="1.1" id="Layer_1" xmlns="http://www.w3.org/2000/svg" xmlns:xlink="http://www.w3.org/1999/xlink" x="0px" y="0px"
	 viewBox="0 0 402.5 850.4" style="enable-background:new 0 0 402.5 850.4;" xml:space="preserve">
<style type="text/css">
	.st0{fill:none;stroke:#000000;stroke-width:3.1229;stroke-miterlimit:10;}
</style>
<polygon class="st0" points="306.7,554.6 306,565.9 304.6,577.5 303,589.3 301.4,599.8 299.5,610.2 297.2,621.1 294.7,631.6 
	291.3,645.1 287.1,658.7 283.7,669.3 279.8,679.4 275.5,689.6 270.7,700 265.7,710.2 260.6,719.8 253.5,731.4 246,742.4 
	237.4,753.5 227.6,764.2 217.3,773.1 205.8,780.3 191.5,786.5 176.5,790 166.3,790.6 156,790.1 146.2,788.3 137.6,785.3 
	127.1,780.2 118.8,775.4 107.6,767 97.6,756.3 91.4,748.3 85.6,739.9 80,730.5 75,720.6 69.1,707.1 64.4,693.3 60.9,680.5 
	57.8,667.6 56.1,660.3 54.3,650.9 52.5,640.5 51.7,633.8 49.9,620.9 49,607.5 49.1,599.1 49.3,590.7 50.1,581.1 51.1,571.8 
	52.2,559.2 53.5,546.5 54.2,540.1 55.7,528.9 56.9,517.7 58.2,509.2 59.6,499.6 61.4,490.1 63.1,479.8 64.8,469.6 66.5,459 
	68.2,448.5 70,435.6 71.7,422.9 72.7,410.2 73.2,397.5 73.3,383.7 72.4,370.3 70.6,355.8 68.6,342.4 67.3,335 65.9,327.9 
	63.9,317.3 61.5,307.1 59,296.2 56.4,285.6 53.6,273.8 50.6,262 48,249.3 45.4,236 43.3,226.3 41.2,217.3 38.5,204.7 37.1,197.2 
	35.5,189.3 33.8,179.4 32.2,169.4 30.7,158.7 29.5,148.3 28.7,139 28.6,130.8 29.6,117.2 32.2,105.3 36,94.5 40.9,85.1 48.1,75.2 
	56.2,66.7 65.7,58.8 75.3,51.9 85.2,46.8 96.8,43.1 109.7,40.4 119.8,38.6 127.7,37.8 139.1,36.8 146.4,37 154.6,37.8 167,41 
	180.1,47 188.9,52.9 196.7,59.7 204,67 210.1,75.1 218.4,87.9 225,101.1 229.8,112.6 233.4,123.2 235.8,132 238,140.4 240,149.2 
	241.9,158 243.8,168.8 245.9,179.8 247.5,190.6 249.5,201.7 251.9,214.5 254.7,227.8 256.9,237.6 258.9,247.3 261.5,260.3 
	264.2,273.2 265.7,281.6 267.3,289.9 269,298.3 270.5,306.7 272.4,316.1 274.7,326.3 277.2,337.3 279.9,349 282.8,360.5 
	285.5,372.5 288,383.8 290.6,395.3 293.4,408.6 296.2,422.3 298.5,433.6 300.5,445.1 302.6,457.6 304.5,470.3 305.5,478.1 
	306.6,486.1 306.9,494.3 306.9,507.2 306.9,516.5 307,526.5 306.9,535.2 307,543.8 "/>
</svg>
