<?xml version="1.0" encoding="utf-8"?>
<!-- Generator: Adobe Illustrator 21.1.0, SVG Export Plug-In . SVG Version: 6.00 Build 0)  -->
<svg version="1.1" id="Layer_1" xmlns="http://www.w3.org/2000/svg" xmlns:xlink="http://www.w3.org/1999/xlink" x="0px" y="0px"
	 viewBox="0 0 566.9 566.9" style="enable-background:new 0 0 566.9 566.9;" xml:space="preserve">
<style type="text/css">
	.st0{fill:none;stroke:#010101;stroke-miterlimit:10;}
</style>
<path class="st0" d="M336.1,199.6l6.3,0.2l6.3,0.2l6.3,0.2l6.3,0.2l6.3,0.2l6.3,0.2l6.3,0.2l6.3,0.2c-0.6,8.8-1.1,17.7-1.6,26.6
	c-0.5,8.9-0.8,17.7-1.2,26.4s-0.6,17.1-0.8,25.1c-0.2,8.1-0.4,15.7-0.5,22.9c-0.1,7.1-0.2,13.7-0.3,19.6s-0.1,11-0.1,15.3
	c0,4.3,0,7.6,0,9.9c0,2.3,0,3.5,0,3.5s-0.2,1.7-0.6,4.6s-1.1,7-2.1,12c-1,5-2.4,10.8-4.2,17c-1.8,6.2-4.1,12.8-6.9,19.5
	c-2.8,6.6-6.2,13.3-10.2,19.5s-8.7,12-14.1,17c-5.4,5-11.6,9.1-18.6,12c-7,2.9-14.9,4.5-23.7,4.5c-8.8,0-17.1-0.4-24.9-1.2
	c-7.8-0.8-15.1-2-21.9-3.7c-6.8-1.7-13-3.9-18.8-6.7c-5.7-2.7-10.9-6-15.6-9.9s-8.7-8.4-12.3-13.5s-6.5-11-8.9-17.5
	s-4.2-13.8-5.4-21.8s-1.8-16.9-1.9-26.5c0-7.3-0.1-15.6-0.4-24.6c-0.2-9-0.6-18.7-1-28.9s-0.9-20.9-1.4-31.8
	c-0.5-10.9-1.1-22.1-1.7-33.4c-0.6-11.2-1.2-22.5-1.8-33.6c-0.6-11.1-1.2-21.9-1.8-32.4s-1.2-20.5-1.7-29.9
	c-0.5-9.4-1-18.1-1.4-25.9l9.1-0.4l9.1-0.4l9.1-0.4l9.1-0.4l9.1-0.4l9.1-0.4l9.1-0.4l9.1-0.4l10.3,11l10.3,11l10.3,11l10.3,11
	l10.3,11l10.3,11l10.3,11L336.1,199.6z"/>
<polyline class="st0" points="219.9,202.9 326.9,290.2 262,387.2 "/>
</svg>
