<?xml version="1.0" encoding="utf-8"?>
<!-- Generator: Adobe Illustrator 21.1.0, SVG Export Plug-In . SVG Version: 6.00 Build 0)  -->
<svg version="1.1" id="Layer_1" xmlns="http://www.w3.org/2000/svg" xmlns:xlink="http://www.w3.org/1999/xlink" x="0px" y="0px"
	 viewBox="0 0 566.9 566.9" style="enable-background:new 0 0 566.9 566.9;" xml:space="preserve">
<style type="text/css">
	.st0{fill:none;stroke:#010101;stroke-miterlimit:10;}
</style>
<path class="st0" d="M423,267.3c-11.4,18.3-21.7,34.4-30.9,48.8c-9.2,14.4-17.4,26.9-24.8,38.1s-13.9,20.9-19.9,29.7
	s-11.2,16.4-16.1,23.4c-4.9,7-9.3,13.3-13.5,19.3s-8.2,11.7-12.1,17.4c-3.9,5.7-7.8,11.5-11.8,17.7c-4,6.2-8.2,12.8-12.7,20.1
	c-1.3,2.2-2.7,4.4-4,6.8c-1.4,2.4-2.7,4.9-4.1,7.5c-1.4,2.6-2.8,5.3-4.2,8.1s-2.8,5.7-4.3,8.6c-1.4,2.9-2.9,6-4.3,9
	s-2.9,6.2-4.4,9.4c-1.5,3.2-2.9,6.4-4.4,9.7c-1.5,3.3-2.9,6.6-4.3,10l-5.8-2.2l-5.8-2.2l-5.8-2.2l-5.8-2.2l-5.8-2.2l-5.8-2.2
	l-5.8-2.2l-5.8-2.2l-6.1-13.8l-6.1-13.8l-6.1-13.8l-6.1-13.8l-6.1-13.8l-6.1-13.8l-6.1-13.8l-6.1-13.8l-8.7-2.6l-8.7-2.6l-8.7-2.6
	l-8.7-2.6l-8.7-2.6l-8.7-2.6l-8.7-2.6l-8.7-2.6c0.7-2.4,1.4-4.7,2-6.9c0.7-2.2,1.3-4.3,1.9-6.3c0.6-2,1.2-3.9,1.7-5.7
	c0.6-1.8,1.1-3.5,1.6-5.1c0.5-1.6,1-3.1,1.4-4.4s0.8-2.6,1.2-3.7c0.4-1.1,0.7-2.1,1-2.9c0.3-0.8,0.6-1.6,0.8-2.1
	c1-2.4,2.2-5.6,3.7-9.3c1.5-3.8,3.2-8.2,5.1-13.2c1.9-4.9,4.1-10.4,6.4-16.3c2.3-5.9,4.9-12.2,7.6-18.7c2.7-6.6,5.6-13.4,8.7-20.5
	c3.1-7,6.3-14.2,9.7-21.5c3.4-7.3,6.9-14.6,10.6-21.9s7.5-14.5,11.5-21.5c13.9-21.6,27-41.3,39.3-59.4s23.9-34.3,35-48.9
	c11.1-14.6,21.6-27.5,31.7-38.7c10.2-11.2,20-20.8,29.6-28.7s19-14.2,28.4-18.8c9.4-4.7,18.8-7.7,28.3-9.2
	c9.6-1.5,19.3-1.4,29.3,0.2s20.4,4.8,31.4,9.4c10.9,4.6,20.7,9.6,29.4,15c8.7,5.4,16.1,11.2,22.4,17.6s11.2,13.4,14.9,21.1
	s6,16.1,7,25.4c1,9.3,0.5,19.4-1.4,30.5c-1.9,11.1-5.3,23.2-10.2,36.4c-4.9,13.2-11.4,27.6-19.5,43.2S434.4,249,423,267.3z"/>
<polyline class="st0" points="230.7,440.6 141.3,319.2 294,289.5 219.8,193.9 375.5,181.8 311.3,73.3 431.1,83.2 "/>
</svg>
