<?xml version="1.0" encoding="utf-8"?>
<!-- Generator: Adobe Illustrator 19.2.1, SVG Export Plug-In . SVG Version: 6.00 Build 0)  -->
<svg version="1.1" id="Layer_1" xmlns="http://www.w3.org/2000/svg" xmlns:xlink="http://www.w3.org/1999/xlink" x="0px" y="0px"
	 viewBox="0 0 632.1 632.1" style="enable-background:new 0 0 632.1 632.1;" xml:space="preserve">
<style type="text/css">
	.st0{fill:none;stroke:#E52620;stroke-miterlimit:10;}
</style>
<polygon class="st0" points="198.4,601.3 253.1,546 298.8,489 340.3,437.2 375.3,393.5 418.4,339.7 458.9,289.2 503.2,233.9 
	538.3,182.5 567.9,139.2 593.7,96.2 543.1,71.3 532.7,67.4 518.5,63.7 503,62.6 486.9,65.2 471.5,69.6 381.4,104.1 308,132.3 
	282.1,140.4 259.9,144.8 232.6,146.5 191.4,143 186.6,143 174,144.2 155.9,148.5 134.8,157.9 114.3,174.2 100.5,191.8 92.9,206 
	68.5,276.6 47.9,326.4 26,371.5 20,380.8 41.4,398.7 60.7,417.5 79.1,439.7 108.2,485.1 147.8,546.9 180.9,584 198.4,601.3 
	198.4,601.3 "/>
</svg>
