<?xml version="1.0" encoding="utf-8"?>
<!-- Generator: Adobe Illustrator 19.2.1, SVG Export Plug-In . SVG Version: 6.00 Build 0)  -->
<svg version="1.1" id="Layer_1" xmlns="http://www.w3.org/2000/svg" xmlns:xlink="http://www.w3.org/1999/xlink" x="0px" y="0px"
	 viewBox="0 0 632.1 632.1" style="enable-background:new 0 0 632.1 632.1;" xml:space="preserve">
<style type="text/css">
	.st0{fill:none;stroke:#E52529;stroke-miterlimit:10;}
</style>
<polygon class="st0" points="541.1,248.8 479.9,296.7 448.9,316.7 401.8,344.5 360.1,372.2 335.5,393.6 303.9,429.7 277.4,464.8 
	251.1,498.5 222.8,534.6 200.1,560.7 182.4,577.6 158.6,592 126.9,598 93.8,592.4 73,581.3 56,567.5 32.6,540.4 24.5,517.1 
	23.7,495 35.6,452.9 48.7,429.2 68,402.8 94.2,371.7 113.9,347.4 138.8,316.1 163.5,285.8 186.3,256.2 204.6,232 228,201.7 
	246.4,179.1 276.1,145.8 306.2,119.9 319.2,109.1 393,62.8 438.4,43.7 480.8,32.7 534.7,29.3 586.3,51.3 607.1,83.2 610.3,131.5 
	601.2,162.6 583.5,195.9 568.8,216.7 546.8,242.9 "/>
</svg>
