<?xml version="1.0" encoding="utf-8"?>
<!-- Generator: Adobe Illustrator 19.2.1, SVG Export Plug-In . SVG Version: 6.00 Build 0)  -->
<svg version="1.1" id="Layer_1" xmlns="http://www.w3.org/2000/svg" xmlns:xlink="http://www.w3.org/1999/xlink" x="0px" y="0px"
	 viewBox="0 0 632.1 632.1" style="enable-background:new 0 0 632.1 632.1;" xml:space="preserve">
<style type="text/css">
	.st0{fill:none;stroke:#E52620;stroke-miterlimit:10;}
</style>
<polygon class="st0" points="511.1,356.8 514.7,350.4 524,332.7 537,306.2 551.5,273.3 558.4,256.2 564.7,240 570.3,224.6 
	574.9,210.1 579.8,190.8 582.5,172.8 582.8,155.8 580.4,139.7 576.4,127.7 570.5,116.1 562.5,104.7 552.2,93.6 542.6,85.2 
	532.5,78.2 521.9,72.5 510.9,68.1 496.5,64.3 481.3,62.3 465.4,62.1 448.8,63.3 429.2,66.5 408.7,71.4 387.4,77.8 365.2,85.5 
	329.2,99.6 300.7,111.8 281.9,120.5 275.2,123.8 276.7,133.4 278.5,157.8 276,189.9 264.9,222.6 258.7,232.6 251.2,242.9 
	242.7,253.1 233.5,263.2 213.4,283.1 195.1,299.6 181.8,310.9 176.6,315 164.8,324.3 153,333.6 141.2,342.9 129.4,352.2 
	116.7,362.2 104,372.2 91.2,382.3 78.5,392.3 74.5,396.7 65.4,408 55.7,423.5 50,440.4 49.4,451 50.2,463.4 52.5,477 56.2,491.4 
	61.5,506.1 68.4,520.5 77.1,534 87.5,545.9 98,555.8 108.6,564.6 119.1,572.3 129.9,578.6 142.2,584.1 154.9,587.6 168.2,589.2 
	182.1,588.5 204.4,583 221.8,574 235.8,562.5 248,549.6 254.2,542.5 262.4,533 271.7,522 281.5,510.3 293.9,495.6 304.6,482.8 
	312.1,473.8 314.9,470.4 319,465.8 330.2,453.7 346.8,436.8 366.9,417.6 380.2,406 393.8,395.1 407.3,385.5 420.2,378 457.3,363 
	486,357 504.5,356.2 511.1,356.8 "/>
</svg>
