<?xml version="1.0" encoding="utf-8"?>
<!-- Generator: Adobe Illustrator 19.2.1, SVG Export Plug-In . SVG Version: 6.00 Build 0)  -->
<svg version="1.1" id="Layer_1" xmlns="http://www.w3.org/2000/svg" xmlns:xlink="http://www.w3.org/1999/xlink" x="0px" y="0px"
	 viewBox="0 0 632.1 632.1" style="enable-background:new 0 0 632.1 632.1;" xml:space="preserve">
<style type="text/css">
	.st0{fill:#FFFFFF;stroke:#000000;stroke-width:5.1024;stroke-miterlimit:10;}
</style>
<polygon class="st0" points="485.2,225.4 488.7,242.4 497.9,265.6 510.5,292.8 524.7,321.9 538.2,350.8 549,377.4 555.1,399.4 
	554.4,414.9 541.1,418.2 513.9,408 477.3,388.9 435.8,365 393.7,340.8 355.7,320.5 326.1,308.7 309.5,309.5 308.8,326 321.1,355.1 
	341.9,392.6 366.9,433.9 391.4,474.8 411.2,510.8 421.8,537.5 418.6,550.6 403.3,551.5 381.5,545.9 355.3,535.6 326.8,522.8 
	298.1,509.4 271.3,497.3 248.4,488.6 231.5,485.3 222.1,488.6 219.1,497.3 220.4,509.4 224,522.8 227.8,535.6 229.7,545.9 
	227.8,551.5 220,550.6 209.5,537.6 200.6,511.1 192.8,475.5 185.8,435 179.2,394.1 172.5,357 165.3,328.1 157.2,311.8 148,310.8 
	137.9,322.4 127.4,342.3 116.9,366.1 106.9,389.6 97.9,408.4 90.2,418.3 84.3,414.9 82.8,400.4 86.9,380.8 95,357.8 105.3,332.9 
	116.2,307.8 126.1,284.1 133.2,263.5 136,247.4 133.2,237.2 126.1,232 116.2,230.1 105.3,230.1 95,230.2 86.9,229.1 82.8,224.9 
	84.3,216.3 93.3,209.3 109.2,209.7 129.9,215.2 153.3,223.4 177.1,231.9 199.3,238.4 217.6,240.6 229.9,236 234.9,223.2 
	233.8,203.8 228.9,180.1 222.2,154.5 215.8,129.3 211.9,107 212.6,89.9 220,80.5 228.7,79.1 232.7,83.3 233.8,91.4 233.4,101.9 
	233.4,113 235.1,123 240.2,130.2 250.4,133 266.5,130.2 287.3,123 311.1,113 336.3,101.9 361.3,91.4 384.4,83.3 404.1,79.1 
	418.6,80.5 423.3,86.5 416.8,94.3 402.7,103.7 384.7,113.9 366.3,124.7 351.1,135.4 342.9,145.7 345.1,155 360.2,163 385.7,170 
	418.1,176.5 453.6,182.8 488.6,189.5 519.5,197.1 542.6,205.8 554.4,216.3 555.1,224 549,225.6 538.2,223.3 524.7,219.1 
	510.5,215.1 497.9,213.4 488.7,216.2 485.2,225.4 "/>
</svg>
