<?xml version="1.0" encoding="utf-8"?>
<!-- Generator: Adobe Illustrator 19.2.1, SVG Export Plug-In . SVG Version: 6.00 Build 0)  -->
<svg version="1.1" id="Layer_1" xmlns="http://www.w3.org/2000/svg" xmlns:xlink="http://www.w3.org/1999/xlink" x="0px" y="0px"
	 viewBox="0 0 632.1 632.1" style="enable-background:new 0 0 632.1 632.1;" xml:space="preserve">
<style type="text/css">
	.st0{fill:none;stroke:#E52620;stroke-miterlimit:10;}
</style>
<polygon class="st0" points="612.1,256.6 609.6,258.9 602.7,265.1 592.4,274.4 579.5,285.6 563,299.6 545.9,313.7 529.3,326.4 
	514.7,336.5 502.9,344.1 491.1,351.8 479,359.7 466,367.7 453.2,375 439.2,382.7 423.8,391.3 407,401.3 390.6,411.5 374.8,421.4 
	359.8,431 345.6,440.1 330.2,450 315.9,459.1 302.6,467.5 290.4,475.1 272.7,485.7 246.9,501.1 216.3,519.1 184.3,538 161.6,551.2 
	141.4,563 125,572.5 113.8,578.8 97.1,587.6 82.2,594.8 71.5,599.6 67.4,601.4 62.5,589.6 57.7,577.8 52.9,566.1 48.1,554.3 
	45.6,546.9 40.5,529.3 36.3,508.1 36.5,490.2 41.8,474.7 48.2,459.9 53.7,448.9 56,444.5 63.1,432.6 70.3,420.7 77.4,408.9 
	84.6,397 91.9,384.8 99.2,372.7 106.5,360.5 113.8,348.4 119,339.9 130.8,319.5 143.3,294.7 150.6,273.1 152.6,260 153.4,253.3 
	153.6,250 153.8,246.8 154.3,238.3 154.8,225.1 155.2,212.5 155.4,205.7 155.7,202.2 157.4,192.5 161.9,178.1 170.6,160.2 
	186.6,141.2 204.8,128.3 219.8,120.9 226.1,118.6 247.9,113.1 269.8,108.3 293,102.9 319.1,95.6 343.7,88.1 362.5,82.3 376.9,77.5 
	388.3,72.6 394.4,69.5 402.6,65.5 409.8,61.9 412.9,60.4 416.9,66.5 427.8,81.8 443.8,102 463.2,122.5 473.8,131.9 485.8,141.5 
	498.8,151.3 512.2,161.2 527.1,172.2 541.2,182.8 553.7,193 564.1,202.3 586.7,225.8 601.5,242.8 609.6,253.1 612.1,256.6 "/>
</svg>
