<?xml version="1.0" encoding="utf-8"?>
<!-- Generator: Adobe Illustrator 19.2.1, SVG Export Plug-In . SVG Version: 6.00 Build 0)  -->
<svg version="1.1" id="Layer_1" xmlns="http://www.w3.org/2000/svg" xmlns:xlink="http://www.w3.org/1999/xlink" x="0px" y="0px"
	 viewBox="0 0 566.9 566.9" style="enable-background:new 0 0 566.9 566.9;" xml:space="preserve">
<style type="text/css">
	.st0{fill:#FFFFFF;stroke:#000000;stroke-width:1.9547;stroke-miterlimit:10;}
</style>
<polygon class="st0" points="68.1,576.2 58.3,550.7 51.3,523.9 46.7,495 44.7,466.5 44.1,439 46,412.9 52.3,386.9 58.2,361.1 
	67.5,334.5 76.3,306.6 86,279 97,249.9 106.4,221.9 115.2,193.9 125.1,166 133.4,137.6 142.5,110.5 155,83.9 170.3,57.9 193.3,35.1 
	225,22.6 256,22.9 285.7,30.1 314.4,44.6 334.6,67.3 345,95.6 343.3,127.4 336,155.9 326.1,184.3 316.3,212.2 304.8,240 295,267.9 
	285,294.9 280.4,325 279.4,354.9 280.4,383.5 282,413.9 285.4,443.5 286.3,473 285.8,501.5 282.1,530.9 273.8,558.1 263.5,585.4 
	165,577.9 "/>
</svg>
