<?xml version="1.0" encoding="utf-8"?>
<!-- Generator: Adobe Illustrator 21.0.2, SVG Export Plug-In . SVG Version: 6.00 Build 0)  -->
<svg version="1.1" id="Layer_1" xmlns="http://www.w3.org/2000/svg" xmlns:xlink="http://www.w3.org/1999/xlink" x="0px" y="0px"
	 viewBox="0 0 566.9 566.9" style="enable-background:new 0 0 566.9 566.9;" xml:space="preserve">
<style type="text/css">
	.st0{fill:#FFFFFF;stroke:#010101;stroke-miterlimit:10;}
</style>
<path class="st0" d="M480.1,258.5L480.1,258.5L480.1,258.5l-0.1,0.1l0,0l0,0l0,0l0,0l0,0l-14.9,17.3l-14.9,17.3l-14.9,17.3
	L420,328.2l-14.9,17.3l-14.9,17.3l-14.9,17.3l-14.9,17.3c-1.1,0.9-3.1,2.4-5.6,4.4c-2.6,2-5.7,4.5-9.3,7.4s-7.7,6.1-12,9.6
	c-4.3,3.5-8.9,7.2-13.6,11c-4.7,3.8-9.5,7.7-14.2,11.6c-4.7,3.9-9.4,7.8-13.8,11.5c-4.4,3.7-8.5,7.3-12.3,10.6s-7,6.3-9.7,8.9
	c-0.3,0.3-0.7,0.6-1,0.9c-0.3,0.3-0.6,0.6-0.9,0.9c-0.3,0.3-0.6,0.6-0.9,0.9c-0.3,0.3-0.5,0.6-0.8,0.8c-0.3,0.3-0.5,0.5-0.8,0.8
	s-0.5,0.5-0.7,0.7s-0.4,0.5-0.6,0.7c-0.2,0.2-0.4,0.5-0.6,0.7c-0.4,0.4-0.7,0.8-1.1,1.2c-0.4,0.4-0.7,0.8-1.1,1.2
	c-0.4,0.4-0.7,0.8-1.1,1.2s-0.7,0.8-1.1,1.3c-0.4,0.4-0.7,0.8-1.1,1.3c-0.4,0.4-0.7,0.8-1.1,1.3s-0.8,0.9-1.1,1.3
	c-0.4,0.4-0.8,0.9-1.2,1.3c-1.5,1.6-2.9,3.3-4.4,5s-2.9,3.3-4.4,5c-1.5,1.7-2.9,3.4-4.3,5c-1.4,1.7-2.9,3.4-4.2,5.1
	s-2.8,3.4-4.1,5.1c-1.3,1.7-2.7,3.5-3.9,5.2s-2.5,3.5-3.7,5.3c-1.2,1.8-2.3,3.5-3.4,5.3c-0.5,0.8-1,1.6-1.5,2.5
	c-0.6,0.9-1.2,1.8-1.8,2.8s-1.3,2-2,3.1s-5.3,7.4-6.2,8.7l-5.6-6.8l-5.6-6.8l-5.6-6.8l-5.6-6.8l-5.6-6.8l-5.6-6.8l-5.6-6.8l-5.6-6.8
	l-8.9-5.7l-8.9-5.7l-8.9-5.7l-8.9-5.7l-8.9-5.7l-8.9-5.7L103,453l-8.9-5.7l-9.8-1.7l-9.8-1.7l-9.8-1.7l-9.8-1.7l-9.8-1.7l-9.8-1.7
	l-9.8-1.7l-9.8-1.7c1.6-2.4,7.4-11.3,9.2-14c1.7-2.7,3.4-5.3,5-7.8c1.6-2.5,3.2-5,4.7-7.2c1.5-2.3,2.8-4.4,4-6.3s2.3-3.6,3.2-5.1
	c0.9-1.5,1.6-2.6,2.2-3.5c0.2-0.3,0.4-0.7,0.6-1c0.2-0.4,0.5-0.8,0.7-1.3c0.3-0.5,0.6-1,0.9-1.6c0.3-0.6,0.7-1.2,1-1.9
	c0.4-0.7,0.8-1.4,1.2-2.3c0.4-0.8,0.9-1.7,1.4-2.6c0.5-1,1-2,1.6-3.1c0.6-1.1,1.2-2.3,1.8-3.5c1.8-3.5,3.9-7.4,6.1-11.7
	c2.3-4.3,4.7-9,7.3-13.9s5.4-10,8.2-15.3c2.9-5.2,5.8-10.6,8.8-16c3-5.4,6.1-10.7,9.2-16c3.1-5.3,6.2-10.4,9.3-15.3
	c3.1-4.9,6.1-9.6,9-13.9s5.8-8.3,8.5-11.8c0.2-0.2,0.4-0.5,0.6-0.7c0.2-0.2,0.4-0.5,0.6-0.7c0.2-0.2,0.4-0.5,0.6-0.7
	c0.2-0.2,0.4-0.5,0.6-0.7c0.2-0.2,0.4-0.5,0.6-0.7c0.2-0.2,0.4-0.5,0.6-0.8c0.2-0.3,0.4-0.5,0.6-0.8c0.2-0.3,0.4-0.5,0.6-0.8
	c1.9-2.5,4-5.1,6.1-7.9c2.1-2.7,4.4-5.6,6.7-8.5c2.3-2.9,4.8-6,7.4-9.1c2.6-3.1,5.3-6.4,8.1-9.7c2.8-3.3,5.8-6.7,9-10.2
	c3.1-3.5,6.4-7.1,9.9-10.7c3.4-3.7,7-7.4,10.8-11.2s7.7-7.7,11.8-11.6c4.2-4,8.5-8,12.9-11.9c4.4-3.9,8.8-7.8,13.3-11.7
	c4.5-3.9,9.1-7.7,13.9-11.5s9.5-7.6,14.4-11.3c4.9-3.7,9.9-7.5,15-11.2s10.3-7.4,15.5-11c5.3-3.6,10.7-7.3,16.2-10.9
	s11.1-7.2,16.8-10.8c6.8-4.3,13.5-8.3,19.9-12c6.4-3.7,12.6-7.2,18.6-10.4c6-3.2,11.8-6.1,17.4-8.8c5.6-2.7,11-5.1,16.1-7.2
	s10.2-4,15-5.6c4.8-1.6,9.4-2.9,13.8-4s8.6-1.9,12.7-2.5c4-0.6,7.9-0.9,11.6-0.9c3,0,5.9,0.1,8.7,0.4s5.4,0.8,7.9,1.4
	c2.5,0.6,5,1.3,7.4,2.2c2.4,0.9,4.7,1.8,6.9,2.9c2.2,1.1,4.4,2.3,6.6,3.5s4.3,2.6,6.4,4c2.1,1.4,4.2,2.9,6.3,4.4
	c2.1,1.5,4.3,3.1,6.4,4.7l0.1,0l0.1,0l0.1,0l0.1,0l0.1,0l0.1,0l0.1,0l0.1,0c2.3,1.7,4.7,3.7,7,5.9c2.3,2.2,4.6,4.7,6.9,7.4
	c2.3,2.7,4.5,5.5,6.7,8.6c2.2,3,4.3,6.2,6.3,9.5c2,3.3,3.9,6.7,5.7,10.2c1.8,3.5,3.5,7,5,10.6c1.5,3.6,3,7.2,4.2,10.8
	c1.2,3.6,2.3,7.2,3.2,10.8c0.8,3.2,1.3,6.4,1.5,9.6c0.2,3.2,0.2,6.4-0.1,9.5c-0.3,3.2-0.8,6.3-1.5,9.5c-0.7,3.2-1.6,6.3-2.7,9.5
	c-1.1,3.2-2.3,6.3-3.6,9.6c-1.4,3.2-2.9,6.4-4.4,9.7c-1.6,3.3-3.3,6.6-5,9.9c-1.8,3.4-3.6,6.7-5.4,10.2l0,0l0,0l0,0l0,0l0,0l0,0l0,0
	l0,0c-2,3.7-4,7.2-6.1,10.6s-4.2,6.7-6.4,9.8c-2.1,3.1-4.2,6-6.3,8.8c-2.1,2.7-4,5.3-5.9,7.6s-3.6,4.4-5.2,6.2s-3,3.4-4.1,4.7
	c-1.2,1.3-2.1,2.3-2.7,3C480.5,258.1,480.1,258.5,480.1,258.5z"/>
</svg>
