<?xml version="1.0" encoding="utf-8"?>
<!-- Generator: Adobe Illustrator 21.1.0, SVG Export Plug-In . SVG Version: 6.00 Build 0)  -->
<svg version="1.1" id="Layer_1" xmlns="http://www.w3.org/2000/svg" xmlns:xlink="http://www.w3.org/1999/xlink" x="0px" y="0px"
	 viewBox="0 0 566.9 566.9" style="enable-background:new 0 0 566.9 566.9;" xml:space="preserve">
<style type="text/css">
	.st0{fill:#FFFFFF;stroke:#010101;stroke-miterlimit:10;}
	.st1{fill:#ED2024;stroke:#000000;stroke-miterlimit:10;}
</style>
<path class="st0" d="M504.8,444.6l-0.8,0.2l-0.6,0.2l-1.3,0.3l-1.6,0.5l-1.3,0.3l-2.6,0.7l-3.7,1l-2.5,0.7l-4.3,1.2l-2.6,0.8l-3.7,1
	l-4.3,1.2l-7.5,2.1l-8.5,2.4l-12,3.4l-11.4,3.3l-13.7,3.8l-8.9,2.5l-7.9,2.3l-12.6,3.5l-1.4,0.4l-1,0.3l-1,0.3l-1.2,0.3l-0.3,0.6
	l-0.4,0.8l-0.6,1.1l-0.5,0.9l-2.9,5.4l-2.6,4.7l-3.8,7L373,506l-4.3,7.9l-3.6,6.7l-4.3,7.9l-1.8,3.5l-2.8,5.1l-0.3,0.6l-0.4,0.8
	l-0.4,0.8l-0.4,0.8c-0.3-0.3-0.7-0.4-1-0.6c-0.3-0.3-0.8-0.4-1.1-0.7c-0.3-0.2-0.7-0.4-1-0.6c-0.2-0.1-0.5-0.2-0.8-0.4
	c-59.6-35.7-115.8-71.4-145.8-95c-0.7-0.5-1.2-1-1.9-1.5c-5.6-4.5-10.2-8.6-13.6-12.1c-31.9-32.7-73.9-80-105.9-120.3
	c-14.6-18.3-27.1-35.2-35.7-48.5C28.5,229.9,22.2,191,36.8,154.4c4.2-10.8,10.4-21.5,18.6-31.6c2.7-3.4,5.6-6.6,8.8-9.9
	c37.4-38.6,86.4-45.5,144.9-8.6l0,0c8.1,5.1,16.5,11.1,25,17.9c3.4,2.7,6.9,5.7,10.4,8.7c18.2,15.9,39.6,36.7,61.8,59.3
	c35.5,36.2,73.3,77.1,104,110.4c28.6,31,51.2,55.4,60.3,63.1c6.5,5.5,22.5,17.3,42.7,31.5c0.9,0.6,1.7,1.2,2.6,1.8
	c1,0.7,2.1,1.5,3.1,2.2c0.9,0.6,1.9,1.3,2.7,1.9c1.2,0.8,2.3,1.6,3.4,2.3c0.7,0.5,1.4,1,2.1,1.5c0.2,0.1,0.4,0.3,0.7,0.4
	c0.3,0.3,0.7,0.4,1,0.7c0.3,0.3,0.8,0.5,1.1,0.8l-0.2,0.2l-0.3,0.6l-0.4,0.7l-0.5,0.8l-1.4,2.2l-1.4,2.2l-1.7,2.6l-1.7,2.6l-1.3,2.1
	l-1,1.6l-1.6,2.4l-1.4,2.2l-1.5,2.3l-1.6,2.4l-1.1,1.7l-0.9,1.4l-1.5,2.3l-1.1,1.7l-0.7,1.1l-0.7,1.1l-0.5,0.8l-0.5,0.8l-0.6,1
	l-0.8,1.2L504.8,444.6z"/>
<polyline class="st1" points="312.6,456.5 172,339.8 86.5,215.8 110.1,125.3 191.6,204.1 305.2,306 429.6,404.1 "/>
</svg>
