<?xml version="1.0" encoding="utf-8"?>
<!-- Generator: Adobe Illustrator 21.1.0, SVG Export Plug-In . SVG Version: 6.00 Build 0)  -->
<svg version="1.1" id="Layer_1" xmlns="http://www.w3.org/2000/svg" xmlns:xlink="http://www.w3.org/1999/xlink" x="0px" y="0px"
	 viewBox="0 0 566.9 566.9" style="enable-background:new 0 0 566.9 566.9;" xml:space="preserve">
<style type="text/css">
	.st0{fill:#FFFFFF;stroke:#010101;stroke-width:8.5039;stroke-miterlimit:10;}
</style>
<path class="st0" d="M421.8,56.3c-6.2,24.7-12.5,51.9-15.1,69.8c-3.8,26.4-0.8,75.3,1.7,105.5c1.3,15.6,2.4,26.2,2.4,26.2l1.3,178
	c0,0-5.6,14.8-18.2,31.8c-16.8,22.8-46.1,49.6-91.1,50.9c-12.4,0.3-23.7-0.5-34-2.1c-55.1-8.9-81.1-43-82.8-63.2
	c-1.1-13.1-7.2-60.2-13.1-103.8c-4.8-36.1-9.5-69.9-11.1-80c-1.7-10.6-9.7-54.5-17.1-104.7l90.3-12.4l57.6-102.4L421.8,56.3z"/>
</svg>
