<?xml version="1.0" encoding="utf-8"?>
<!-- Generator: Adobe Illustrator 19.2.1, SVG Export Plug-In . SVG Version: 6.00 Build 0)  -->
<svg version="1.1" id="_x35_7ea76e8-66f9-4263-aa50-1fd7dbacac40"
	 xmlns="http://www.w3.org/2000/svg" xmlns:xlink="http://www.w3.org/1999/xlink" x="0px" y="0px" viewBox="0 0 294 875.9"
	 style="enable-background:new 0 0 294 875.9;" xml:space="preserve">
<title>troy</title>
<polygon points="529.7,39.3 545.1,34.2 564.1,29 583.2,25 599.3,23.4 610,24.2 622.9,26.4 635.5,29.7 645.2,34 653.3,40.3 662.2,49 
	670.3,58.4 676,66.9 679.4,74.2 682.8,83.5 685.6,92.9 687.3,100.8 688.4,110.2 689.1,121.5 689.2,132.9 688.4,142.2 684.2,158.2 
	677.6,177.1 669.9,195.6 662.6,210.4 653.3,225.5 641.3,243.2 628.6,260.4 617.3,274 603.8,287.7 586.8,303.6 569.3,319 
	554.4,331.3 534.6,346 510.2,363.2 485.7,380.2 465.3,394.2 448.7,405.1 428.6,418.1 408.8,431.5 393.2,443.7 382.5,454.5 
	370.4,468.3 358.8,482.6 349.4,494.6 336,512.5 320,534.1 304,555.8 290.7,573.8 284.8,581.6 277.7,590.9 270.5,600.2 264.6,608 
	256.4,618.4 246.1,631.7 237.2,643.2 233.4,648 230.5,652 223.5,661.3 215.1,672 208,679.8 201.4,685.2 193.1,691.2 184.4,696.6 
	176.9,700.3 169.3,703 159.7,706.1 149.9,708.7 142.1,710.4 135.1,711.4 127,712.4 118.8,712.8 111.8,712.4 103.6,709.8 94.1,705.2 
	84.9,699.8 77.5,695 68.8,688.8 58.3,681.2 48.1,673.2 40.1,666 35.4,661 30.1,654.5 25.2,647.9 21.7,642 18.5,634.8 15.3,625.9 
	12.7,616.8 11.4,609.1 11.8,599 13.3,586.8 15.5,574.8 18.2,564.9 22.9,552.2 29.3,537.2 36.4,522.4 42.9,510.5 51,498.7 
	61.4,484.8 72.1,471.2 81.2,460 89.1,450.4 98.7,438.8 108.2,427.2 116.1,417.5 130.2,399.4 147,377.3 163.6,355.1 177.2,336.6 
	192.7,315 211.1,288.9 229.7,262.8 245.5,241.5 257.9,225.7 273.4,207 289.4,188.7 303.1,174 315.8,162.2 331.7,148.8 348,135.7 
	361.8,125.2 375.3,115.8 392,105 409,94.5 423.3,86.3 446.8,74.5 475.8,61.4 505.1,49 529.7,39.3 "/>
</svg>
