<?xml version="1.0" encoding="utf-8"?>
<!-- Generator: Adobe Illustrator 21.1.0, SVG Export Plug-In . SVG Version: 6.00 Build 0)  -->
<svg version="1.1" id="Layer_1" xmlns="http://www.w3.org/2000/svg" xmlns:xlink="http://www.w3.org/1999/xlink" x="0px" y="0px"
	 viewBox="0 0 566.9 566.9" style="enable-background:new 0 0 566.9 566.9;" xml:space="preserve">
<style type="text/css">
	.st0{fill:#FFFFFF;stroke:#010101;stroke-miterlimit:10;}
	.st1{fill:#ED2024;stroke:#000000;stroke-miterlimit:10;}
	.st2{fill:#FFFFFF;stroke:#000000;stroke-miterlimit:10;}
</style>
<path class="st0" d="M509.4,340.3l-4.5,3.1l-7.6,5.2l-4.4,3l-8.7,6l-10.7,7.3l-5.7,3.9l-6.8,4.6l-4.4,3l-5,3.4l-0.8,4.7l-0.7,4.1
	l-0.9,4.9l-2.4,13.9l-3.1,17.8l-2.8,16.1l-3.2,18.3l-3.5,20.2l-2.1,11.8l-1.6,8.9l-5.4,3.9l-10.4,9.5l-7.8,5.6l-10,10.1
	c0,0-27.4-32.6-54-58.3c-35.7-34.5-206.8-144.6-259.7-203.2S2.8,155.3,53,97.8s112-52.4,156.1-26.1s113,64.2,177.6,121.2
	c42,37.1,81.3,88.3,103.6,119.5c2,2.9,3.9,5.5,5.7,8c2.3,3.3,4.3,6.3,6.1,8.8c1.7,2.5,3.1,4.6,4.3,6.3
	C508.3,338.6,509.4,340.3,509.4,340.3z"/>
<polyline class="st1" points="382.2,429.5 271.2,316.5 157.5,214.6 70.3,142.2 157.7,108.9 290.3,180.4 421.6,307.5 "/>
<path class="st2" d="M369-75.1"/>
</svg>
