<?xml version="1.0" encoding="utf-8"?>
<!-- Generator: Adobe Illustrator 21.0.2, SVG Export Plug-In . SVG Version: 6.00 Build 0)  -->
<svg version="1.1" id="Layer_1" xmlns="http://www.w3.org/2000/svg" xmlns:xlink="http://www.w3.org/1999/xlink" x="0px" y="0px"
	 viewBox="0 0 566.9 566.9" style="enable-background:new 0 0 566.9 566.9;" xml:space="preserve">
<style type="text/css">
	.st0{fill:#FFFFFF;stroke:#010101;stroke-miterlimit:10;}
</style>
<path class="st0" d="M328.3,176.6c0,1.3-0.7,10.4-0.8,11.5c0,1.2-0.1,2.3-0.1,3.4c0,1.1-0.1,2.1-0.1,3.2c0,0.9-0.1,1.8-0.1,2.6
	c0,0.8-0.1,1.6-0.1,2.4s-0.1,1.5-0.1,2.1c0,0.7-0.1,1.3-0.1,1.9c0,0.6,0,1.1-0.1,1.6c0,0.5,0,0.9-0.1,1.3c0,0.4,0,0.7,0,0.9
	c0,0.3,0,0.5,0,0.6l-0.9,12.7l-0.9,12.7l-0.9,12.7l-0.9,12.7l-0.9,12.7l-0.9,12.7l-0.9,12.7l-0.9,12.7l-0.5,9l-0.5,9l-0.5,9l-0.5,9
	l-0.5,9l-0.5,9l-0.5,9l-0.5,9c-0.3,0.6-0.7,1.4-1.2,2.3c-0.5,0.9-1.1,1.9-1.7,3s-1.4,2.3-2.2,3.5c-0.8,1.3-1.7,2.6-2.7,4
	c-1,1.4-2,2.9-3.2,4.4c-1.2,1.5-2.4,3.1-3.7,4.7c-1.3,1.6-2.7,3.2-4.3,4.9c-1.5,1.6-3.1,3.3-4.8,5c-2.8,2.7-5.6,5.3-8.6,7.7
	c-2.9,2.4-5.9,4.6-9,6.7c-3.1,2.1-6.3,4-9.5,5.7s-6.5,3.3-9.9,4.7c-3.4,1.4-6.8,2.7-10.4,3.7c-3.5,1.1-7.1,2-10.8,2.7
	c-3.7,0.7-7.4,1.3-11.2,1.7c-3.8,0.4-7.7,0.7-11.6,0.7c-3.9,0.1-7.7,0-11.4-0.4c-3.7-0.3-7.3-0.8-10.8-1.5s-7-1.6-10.3-2.7
	s-6.6-2.3-9.8-3.8c-3.2-1.5-6.2-3.1-9.2-4.9c-3-1.8-5.9-3.9-8.7-6.1c-2.8-2.2-5.5-4.6-8.1-7.2c-2.6-2.6-5.1-5.4-7.5-8.3
	c-1.5-1.9-3-3.8-4.3-5.7c-1.3-1.9-2.6-3.8-3.7-5.6c-1.2-1.8-2.2-3.6-3.2-5.4c-1-1.7-1.9-3.4-2.7-5s-1.5-3.1-2.1-4.5
	c-0.6-1.4-1.2-2.7-1.7-3.8c-0.5-1.2-0.9-2.2-1.2-3.1c-0.3-0.9-0.6-1.6-0.8-2.1c-0.6-8.6-1.3-17.8-2-27.2c-0.7-9.4-1.4-19.2-2.1-28.9
	c-0.7-9.8-1.4-19.6-2.1-29.1c-0.7-9.6-1.4-18.9-2-27.8c-0.6-8.9-1.2-17.3-1.7-24.9c-0.5-7.7-1-14.6-1.4-20.5
	c-0.4-5.9-0.7-10.9-0.9-14.6s-0.3-6.2-0.3-7.2c0-0.2,0-0.4,0-0.6c0-0.2,0-0.5,0-0.7s0-0.5,0-0.9c0-0.3,0-0.6,0-1c0-0.3,0-0.7,0-1.1
	c0-0.4,0-0.8,0-1.2c0-0.4,0-0.8,0-1.3s0-0.9,0-1.4c0-0.5,0.1-2.2,0.1-2.9l9.2-3.8l9.2-3.8l9.2-3.8l9.2-3.8l9.2-3.8l9.2-3.8l9.2-3.8
	l9.2-3.8h10.6h10.6h10.6h10.6h10.6h10.6h10.6h10.6l8.4,2.7l8.4,2.7l8.4,2.7l8.4,2.7l8.4,2.7l8.4,2.7l8.4,2.7L328.3,176.6z"/>
</svg>
