<?xml version="1.0" encoding="utf-8"?>
<!-- Generator: Adobe Illustrator 21.1.0, SVG Export Plug-In . SVG Version: 6.00 Build 0)  -->
<svg version="1.1" id="Layer_1" xmlns="http://www.w3.org/2000/svg" xmlns:xlink="http://www.w3.org/1999/xlink" x="0px" y="0px"
	 viewBox="0 0 566.9 566.9" style="enable-background:new 0 0 566.9 566.9;" xml:space="preserve">
<style type="text/css">
	.st0{fill:#FFFFFF;stroke:#010101;stroke-width:8.5039;stroke-miterlimit:10;}
	.st1{fill:#FF0000;stroke:#000000;stroke-width:8.5039;stroke-miterlimit:10;}
</style>
<path class="st0" d="M287.5,4.6c45.8,0,94.1,24.3,114.3,90.8c2.5,8.2,4.8,17.3,7,27c8.9,39.7,15.2,90.3,19.5,133.9
	c5.2,53.5,7.4,96.5,7.4,96.5s-3.2,27.5-5.9,58.9L301.2,426l0,0l-40.4,110.3L173.6,563c-17.1-53.7-34.7-115.3-37.4-149.8
	c-1.2-15.1-2.3-31-3-47.8c-0.6-12.6-0.9-25.8-0.9-39.6c0-43.8,3.4-93.9,14.3-153.1c0.9-4.9,1.8-9.9,2.8-14.9
	C169.3,58.7,196.3,27.9,240,13.1c4.9-1.7,10-3.1,15.4-4.5C265.7,6,276.5,4.6,287.5,4.6z"/>
<polyline class="st1" points="324.7,63.6 232.3,111.3 198.6,267.1 216.6,454.1 331.3,337.2 324.7,181.2 "/>
</svg>
