<?xml version="1.0" encoding="utf-8"?>
<!-- Generator: Adobe Illustrator 21.1.0, SVG Export Plug-In . SVG Version: 6.00 Build 0)  -->
<svg version="1.1" id="Layer_1" xmlns="http://www.w3.org/2000/svg" xmlns:xlink="http://www.w3.org/1999/xlink" x="0px" y="0px"
	 viewBox="0 0 566.9 566.9" style="enable-background:new 0 0 566.9 566.9;" xml:space="preserve">
<style type="text/css">
	.st0{fill:#FFFFFF;stroke:#000000;stroke-miterlimit:10;}
	.st1{fill:none;stroke:#000000;stroke-miterlimit:10;}
</style>
<path class="st0" d="M90.7,220.6l7.4-0.5l6.7-0.4l10.5-0.7l10.2-0.6l107.9-6.9c0,0,96,2.8,96.4,84.6c0.4,81.8-22,90.1-71.7,102.7
	c-37,9.4-143.2,23-194.6,29.3c-3.5,0.4-6.8,0.8-9.7,1.2c-3.2,0.4-6,0.7-8.5,1c-2,0.2-3.7,0.4-5.2,0.6c-3.4,0.4-5.3,0.6-5.3,0.6
	l-0.8-4.6l-0.6-3.6l-0.8-4.5l-0.8-4.8L30,403.1l-2.3-13.6l-0.7-4.1l-0.9-5.1l-0.7-4.1l-0.9-5.1l3-4.2l3.1-4.3l7.9-10.8l21.9-30.3
	l14.3-19.8l7.7-10.7l8.1-11.1l2.4-3.3l2.6-3.6l-0.4-3.9l-0.5-5.3l-0.4-4.8l-0.6-7l-0.5-5.6l-0.8-8.5l-0.4-4.1l-0.6-6L90.7,220.6z"/>
<polyline class="st1" points="101.5,365.3 179.9,263.8 279.1,331.6 "/>
</svg>
