<svg id="57ea76e8-66f9-4263-aa50-1fd7dbacac40" data-name="Layer 1" xmlns="http://www.w3.org/2000/svg" width="10.37cm" height="30.9cm" viewBox="0 0 294 876.01">
  <defs>
    <style>
      .\30 0d13994-a46c-44da-9fc4-353bee6247ab {
        fill: none;
        stroke: #733357;
        stroke-miterlimit: 10;
      }
    </style>
  </defs>
  <title>troy</title>
  <polygon class="00d13994-a46c-44da-9fc4-353bee6247ab" points="65.5 86 103.5 25.5 143.5 0.51 188.5 2 220.5 18 250.5 46.51 280.5 113 293.5 190 289.5 275 271 382.5 255 468.5 260 535.5 274.5 633 280.2 675.64 286.5 726 291 766.5 283.5 803 265.39 831.56 246 857.5 209.5 869.5 162.5 875.5 132.5 871.5 102 855.5 75.5 819.5 54.5 763.5 45.86 700.75 40.5 646 26.5 545.5 7.5 430 0.5 341.5 7.5 265.5 23.5 194.5 65.5 86"/>
</svg>
